<svg width="1017" height="497" viewBox="0 0 1017 497" fill="none" xmlns="http://www.w3.org/2000/svg">
<g id="Header bg">
<path id="Ellipse 3" d="M1006.51 89.5737C1000.23 79.0183 991.419 70.0115 980.782 63.2827C970.144 56.5539 957.983 52.2922 945.284 50.8426C932.584 49.393 919.702 50.7963 907.681 54.9389C895.661 59.0815 884.839 65.8469 876.093 74.6874C867.346 83.5279 860.921 94.1949 857.336 105.825C853.752 117.455 853.11 129.72 855.462 141.629C857.814 153.538 863.094 164.754 870.874 174.371C878.654 183.987 888.716 191.733 900.245 196.982L915.431 167.059C908.863 164.069 903.131 159.656 898.698 154.178C894.266 148.699 891.258 142.309 889.918 135.525C888.578 128.74 888.944 121.753 890.986 115.127C893.028 108.502 896.688 102.425 901.671 97.3882C906.654 92.3518 912.819 88.4976 919.667 86.1375C926.516 83.7775 933.854 82.978 941.089 83.8038C948.324 84.6297 955.252 87.0576 961.313 90.891C967.373 94.7244 972.394 99.8555 975.971 105.869L1006.51 89.5737Z" fill="#6070FF"/>
<path id="Ellipse 13" d="M179.263 486.2C180.952 484.295 182.143 482.04 182.741 479.617C183.338 477.194 183.325 474.672 182.702 472.255C182.079 469.838 180.864 467.594 179.155 465.705C177.447 463.815 175.292 462.333 172.866 461.379C170.44 460.425 167.811 460.026 165.191 460.213C162.572 460.4 160.036 461.169 157.788 462.457C155.541 463.746 153.646 465.517 152.256 467.628C150.866 469.739 150.02 472.131 149.787 474.609L156.957 475.213C157.09 473.801 157.572 472.438 158.364 471.236C159.156 470.033 160.235 469.024 161.516 468.29C162.796 467.556 164.241 467.118 165.733 467.012C167.225 466.905 168.723 467.132 170.105 467.676C171.487 468.22 172.715 469.064 173.688 470.14C174.662 471.217 175.354 472.495 175.709 473.872C176.064 475.249 176.072 476.686 175.731 478.066C175.391 479.446 174.712 480.731 173.75 481.816L179.263 486.2Z" fill="#EBEBFF"/>
<rect id="Rectangle 4" width="146.457" height="32.8388" transform="matrix(0.877393 -0.479771 0.520505 0.853859 808.978 70.2659)" fill="#EBEBFF"/>
<rect id="Rectangle 5" width="116.447" height="20.0699" transform="matrix(0.925682 0.378303 -0.414593 0.910007 507.447 434.684)" fill="#EBEBFF"/>
<rect id="Rectangle 7" width="40.6468" height="6.92051" transform="matrix(0.979658 -0.200677 -0.222629 -0.974903 479.672 98.2148)" fill="#6070FF"/>
<rect id="Rectangle 6" width="76.8953" height="13.786" transform="matrix(0.712208 -0.701968 0.739567 0.673083 0.601562 68.8352)" fill="#EBEBFF"/>
<ellipse id="Ellipse 4" cx="602.774" cy="456.384" rx="17.0927" ry="16.1887" fill="#6070FF"/>
<ellipse id="Ellipse 5" cx="498.763" cy="102.988" rx="8.36453" ry="7.92213" fill="#EBEBFF"/>
<path id="Ellipse 6" d="M883.395 387.496C883.395 401.461 871.433 412.829 856.619 412.829C841.806 412.829 829.844 401.461 829.844 387.496C829.844 373.53 841.806 362.163 856.619 362.163C871.433 362.163 883.395 373.53 883.395 387.496Z" fill="white" stroke="#EBEBFF"/>
<path id="Ellipse 7" d="M705.194 36.8551C705.194 29.7376 699.094 23.922 691.51 23.922C683.927 23.922 677.827 29.7376 677.827 36.8551C677.827 43.9727 683.927 49.7883 691.51 49.7883C699.094 49.7883 705.194 43.9727 705.194 36.8551Z" fill="white" stroke="#EBEBFF"/>
<path id="Ellipse 8" d="M261.51 36.8551C261.51 39.4071 259.318 41.5217 256.555 41.5217C253.793 41.5217 251.6 39.4071 251.6 36.8551C251.6 34.303 253.793 32.1885 256.555 32.1885C259.318 32.1885 261.51 34.303 261.51 36.8551Z" fill="white" stroke="#EBEBFF"/>
<path id="Ellipse 14" d="M44.7598 278.652C44.7598 274.579 41.2647 271.23 36.8953 271.23C32.5259 271.23 29.0308 274.579 29.0308 278.652C29.0308 282.726 32.5259 286.075 36.8953 286.075C41.2647 286.075 44.7598 282.726 44.7598 278.652Z" fill="white" stroke="#EBEBFF"/>
<path id="Ellipse 11" d="M34.3379 50.3394C31.2899 57.1008 31.2027 64.7321 34.0954 71.5544C36.9882 78.3768 42.624 83.8313 49.763 86.7181C56.902 89.605 64.9594 89.6876 72.1628 86.9478C79.3661 84.208 85.1252 78.8703 88.1733 72.1089L34.3379 50.3394Z" fill="#6070FF"/>
<path id="Ellipse 12" d="M161.021 447.773C160.778 451.135 161.955 454.452 164.294 456.992C166.632 459.533 169.941 461.09 173.491 461.32C177.042 461.55 180.543 460.435 183.226 458.221C185.908 456.006 187.552 452.872 187.795 449.51L161.021 447.773Z" fill="#6070FF"/>
</g>
</svg>
